<?xml version="1.0" standalone="no"?><!DOCTYPE svg PUBLIC "-//W3C//DTD SVG 1.1//EN"
        "http://www.w3.org/Graphics/SVG/1.1/DTD/svg11.dtd">
<svg t="1691130636798" class="icon" viewBox="0 0 1024 1024" version="1.1" xmlns="http://www.w3.org/2000/svg" p-id="5435"
     width="200" height="200">
    <path d="M826.7 98.7H435.8c-31.9 0-57.9 26-57.9 57.9V254H189.7c-31.9 0-57.9 26-57.9 57.9v558.9c0 31.9 26 57.9 57.9 57.9h437.2c31.9 0 57.9-26 57.9-57.9V766.6h141.9c31.9 0 57.9-26 57.9-57.9V383.2c0-16-13-29-29-29s-29 13-29 29v325.5H684.8V311.9c0-31.9-26-57.9-57.9-57.9H435.8v-97.4h390.9v49.6c0 16 13 29 29 29s29-13 29-29v-50.6c-0.1-31.4-26.1-56.9-58-56.9zM626.9 870.8H189.7V311.9h437.2v558.9z"
          fill="#000000" p-id="5436"></path>
    <path d="M279.5 598.6h101.3v139c0 16 13 29 29 29s29-13 29-29v-139h101.3c16 0 29-13 29-29s-13-29-29-29H438.7v-92.7c0-16-13-29-29-29s-29 13-29 29v92.7H279.5c-16 0-29 13-29 29s13 29 29 29z"
          fill="#000000" p-id="5437"></path>
    <path d="M855.7 294.6m-29 0a29 29 0 1 0 58 0 29 29 0 1 0-58 0Z" fill="#000000" p-id="5438"></path>
</svg>