<?xml version="1.0" standalone="no"?><!DOCTYPE svg PUBLIC "-//W3C//DTD SVG 1.1//EN" "http://www.w3.org/Graphics/SVG/1.1/DTD/svg11.dtd"><svg t="1691130441911" class="icon" viewBox="0 0 1024 1024" version="1.1" xmlns="http://www.w3.org/2000/svg" p-id="3338" xmlns:xlink="http://www.w3.org/1999/xlink" width="200" height="200"><path d="M640 64 256 64c-35.3 0-64 28.7-64 64l0 768c0 35.3 28.7 64 64 64l512 0c35.3 0 64-28.7 64-64L832 256 640 64zM640 154.5 741.5 256 640 256 640 154.5zM768 896 256 896 256 128l320 0 0 192 192 0L768 896z" p-id="3339"></path><path d="M320 448l384 0 0 64-384 0 0-64Z" p-id="3340"></path><path d="M320 640l384 0 0 64-384 0 0-64Z" p-id="3341"></path></svg>