<?xml version="1.0" standalone="no"?><!DOCTYPE svg PUBLIC "-//W3C//DTD SVG 1.1//EN"
        "http://www.w3.org/Graphics/SVG/1.1/DTD/svg11.dtd">
<svg t="1690204061961" class="icon" viewBox="0 0 1024 1024" version="1.1" xmlns="http://www.w3.org/2000/svg" p-id="1636"
     width="200" height="200">
    <path d="M426.666667 85.333333L384 128H170.666667v85.333333h42.666666v640c0 22.272 8.149333 45.013333 24.234667 61.098667 16.085333 16.085333 38.826667 24.234667 61.098667 24.234667h426.666666c22.272 0 45.013333-8.149333 61.098667-24.234667 16.085333-16.085333 24.234667-38.826667 24.234667-61.098667V213.333333h42.666666V128h-213.333333l-42.666667-42.666667h-170.666666zM298.666667 213.333333h426.666666v640H298.666667V213.333333z m85.333333 85.333334v469.333333h85.333333V298.666667H384z m170.666667 0v469.333333h85.333333V298.666667h-85.333333z"
          p-id="1637"></path>
</svg>